<?xml version="1.0" encoding="utf-8"?>
<!-- Generator: Adobe Illustrator 22.0.1, SVG Export Plug-In . SVG Version: 6.00 Build 0)  -->
<svg version="1.1" id="Layer_1" xmlns="http://www.w3.org/2000/svg" xmlns:xlink="http://www.w3.org/1999/xlink" x="0px" y="0px"
	 viewBox="0 0 128 32" style="enable-background:new 0 0 128 32;" xml:space="preserve">
<style type="text/css">
	.st0{fill:#02253E;}
</style>
<path class="st0" d="M53.8,10.6c0,4.9,0,9.7,0,14.5c-0.9,0-1.8,0-2.7,0c-0.1,0-0.2-0.1-0.2-0.2c0-0.1,0-0.3,0-0.5
	c0-4.4,0-8.8,0-13.2c0-0.2,0-0.4,0-0.6c-2.8,0-5.6,0-8.5,0c0,0.2,0,0.3,0,0.5c0,4.4,0,8.9,0,13.3c0,0.7,0,0.7-0.7,0.7
	c-0.7,0-1.5,0-2.3,0c0-0.2,0-0.4,0-0.5c0-4.4,0-8.9,0-13.3c0-0.7,0-0.7-0.7-0.7c-0.9,0-1.8,0-2.7,0c-0.4,0-0.5-0.1-0.5-0.5
	c0-0.5,0-1,0-1.6c0-0.4,0.1-0.5,0.5-0.5C37,8,38,8,38.9,8c0.4,0,0.5-0.1,0.5-0.5c0-1.1,0-2.2,0-3.4c0-0.4,0.1-0.8,0.3-1.2
	c0.4-1.1,1.4-1.7,2.5-1.7c1.6-0.1,3.3,0,4.9,0c0.3,0,0.4,0.1,0.4,0.4c0,0.5,0,1.1,0,1.6c0,0.4-0.1,0.6-0.5,0.6c-0.9,0-1.8,0-2.8,0
	c-0.1,0-0.3,0-0.4,0c-1.2,0-1.5,0.3-1.5,1.5c0,0.9,0,1.8,0,2.7c2.8,0,5.6,0,8.4,0c0-0.1,0-0.3,0-0.4c0-0.9,0-1.8,0-2.7
	c0-0.6,0.1-1.2,0.3-1.7c0.4-1.3,1.3-1.8,2.6-1.9c1.6-0.1,3.3,0,4.9,0c0.3,0,0.4,0.1,0.4,0.4c0,0.6,0,1.2,0,1.8
	c0,0.3-0.1,0.4-0.4,0.4c-0.9,0-1.8,0-2.7,0c-0.2,0-0.4,0-0.6,0c-1.2,0-1.5,0.4-1.5,1.5c0,0.9,0,1.8,0,2.7c3.8,0,7.6,0,11.4,0
	c0,0.2,0,0.4,0,0.6c0,5.3,0,10.7,0,16c0,0.5-0.1,0.6-0.6,0.5c-0.5,0-1,0-1.6,0c-0.9,0-0.8,0.1-0.8-0.8c0-4.4,0-8.7,0-13.1
	c0-0.8,0.1-0.7-0.7-0.7c-2.4,0-4.8,0-7.2,0C54.2,10.6,54,10.6,53.8,10.6z"/>
<path class="st0" d="M32.7,25.1c-0.7,0-1.5,0-2.3,0c-0.1,0-0.3-0.2-0.3-0.3c-0.1-0.7-0.1-1.4-0.2-2.2c-0.2,0.3-0.4,0.5-0.6,0.8
	c-2.1,2.4-6.3,2.8-8.8,0.8c-2-1.6-2.4-4.9-0.8-6.8c0.8-1,1.9-1.6,3.2-1.8c1.5-0.3,3.1-0.4,4.7-0.6c0.6-0.1,1.3-0.1,1.9-0.2
	c0.1,0,0.3-0.2,0.3-0.3c0-1.3-0.2-2.6-1.2-3.5c-0.6-0.6-1.4-0.8-2.3-0.8c-1.2,0-2.3,0.1-3.3,0.9c-0.5,0.4-0.8,0.9-0.9,1.4
	C22,12.8,21.9,13,21.5,13c-0.7,0-1.3,0-2,0c-0.4,0-0.5-0.1-0.4-0.5c0.3-1.7,1.2-3,2.7-3.8c2.3-1.3,4.8-1.4,7.2-0.4
	c2.3,1,3.4,2.8,3.6,5.2c0.1,1.2,0.1,2.5,0.1,3.7C32.7,19.8,32.7,22.4,32.7,25.1z M29.7,17.1C29.6,17.1,29.6,17.1,29.7,17.1
	c-1.5,0.1-3,0.1-4.4,0.3c-0.8,0.1-1.6,0.4-2.3,0.7c-1,0.5-1.5,1.5-1.3,2.5c0.2,1.1,1,2,2.1,2.3C27.2,23.7,30.4,20.6,29.7,17.1z"/>
<path class="st0" d="M125.9,8c-0.3,0.8-0.6,1.5-0.9,2.2c-2.4,5.9-4.7,11.8-7.1,17.7c-0.3,0.7-0.6,1.3-1,1.9
	c-0.5,0.7-1.3,1.2-2.1,1.2c-1.6,0.1-3.3,0.1-5,0.2c0-0.9,0-1.7,0-2.6c0.2,0,0.5,0,0.7,0c0.9,0,1.8,0,2.8,0c0.8,0,1.5-0.3,1.9-1.1
	c0.4-0.9,0.8-1.8,1.1-2.8c0.1-0.2,0-0.4-0.1-0.6c-2.4-5.2-4.7-10.4-7.1-15.6C109,8.4,109,8.2,108.9,8c1,0,2,0,2.9,0
	c0.1,0,0.3,0.2,0.4,0.4c1.4,3,2.7,6,4.1,9c0.4,0.9,0.8,1.9,1.3,2.8c0.1,0.1,0.1,0.3,0.3,0.5c0.1-0.2,0.2-0.4,0.2-0.5
	c1.6-3.9,3.1-7.8,4.7-11.8c0.1-0.3,0.3-0.4,0.6-0.4C124.1,8,125,8,125.9,8z"/>
<path class="st0" d="M85,25.1c-0.8,0-1.6,0-2.4,0c-0.1,0-0.2,0-0.4,0c0-0.2,0-0.4,0-0.6c0-3.6,0-7.1,0-10.7c0-1-0.3-1.9-1-2.7
	c-0.8-0.9-1.9-1-2.9-0.9c-3,0-4.7,2.5-4.8,4.9c-0.1,3.1-0.1,6.3-0.1,9.4c0,0.2,0,0.4,0,0.7c-0.9,0-1.8,0-2.7,0
	c-0.1,0-0.2-0.1-0.2-0.2c0-0.1,0-0.2,0-0.4c0-5.3,0-10.6,0-15.9c0-0.6,0-0.6,0.6-0.6c0.8,0,1.5,0,2.3,0c0,0.8,0,1.6,0,2.3
	c0.5-0.5,0.9-0.9,1.4-1.3c2.2-1.7,6-1.8,8.2-0.1c1.4,1.1,2.1,2.5,2.1,4.2c0.1,3.9,0,7.9,0,11.8C85.1,25,85.1,25,85,25.1z"/>
<path class="st0" d="M15.6,19.5c-0.2,2.4-1.6,4.7-4.1,5.5c-2.8,0.9-5.4,0.6-7.8-1.2c-1.7-1.3-2.5-3.1-2.9-5.1
	c-0.3-1.8-0.2-3.6,0.3-5.3C2,10.1,4.5,8,7.8,7.7c1.9-0.2,3.8,0.1,5.4,1.3c1.5,1.1,2.2,2.6,2.4,4.4c0,0.1,0,0.1,0,0.2
	c-0.9,0-1.8,0-2.7,0c-0.1,0-0.3-0.3-0.3-0.5c-0.4-1.3-1.1-2.4-2.4-2.8c-2.2-0.7-4.6,0-5.7,2.3c-1.2,2.5-1.2,5.1,0,7.7
	c0.8,1.8,2.7,2.7,4.7,2.6c1.8-0.1,3.1-1.5,3.4-3c0.1-0.3,0.2-0.5,0.6-0.5C13.9,19.5,14.7,19.5,15.6,19.5z"/>
<path class="st0" d="M100,10.5c-0.9,0-1.7,0-2.6,0c-1.3,0-1.3,0-1.3-1.3c0-1.2,0-1.2,1.2-1.2c0.7,0,1.4,0,2.1,0
	c0.4,0,0.5-0.1,0.5-0.5c0-1.5,0-3,0-4.5c0-0.4,0.1-0.6,0.6-0.6c0.8,0,1.5,0,2.4,0c0,0.2,0,0.4,0,0.6c0,1.5,0,3,0,4.5
	c0,0.4,0.1,0.6,0.5,0.5c1.1,0,2.2,0,3.2,0c0.3,0,0.4,0.1,0.4,0.4c0,0.5,0,1,0,1.5c0,0.4-0.1,0.6-0.6,0.6c-1,0-2.1,0-3.1,0
	c-0.3,0-0.5,0.1-0.5,0.5c0,3.4,0,6.7,0,10.1c0,1.1,0.3,1.4,1.4,1.4c0.9,0,1.9,0,2.8,0c0.4,0,0.5,0.1,0.5,0.5c0,0.6,0,1.2,0,1.8
	c0,0.3-0.1,0.4-0.4,0.4c-1.3,0-2.6,0-3.9,0c-1.8-0.1-3.2-1-3.3-3.1c0-0.3,0-0.6,0-0.9c0-3.3,0-6.6,0-10C100,11,100,10.8,100,10.5z"
	/>
<path class="st0" d="M90.2,25.1c0-5.7,0-11.4,0-17.1c0.9,0,1.8,0,2.7,0c0.1,0,0.2,0.1,0.2,0.2c0,0.1,0,0.3,0,0.4
	c0,5.3,0,10.6,0,15.8c0,0.6,0,0.6-0.6,0.6C91.7,25.1,91,25.1,90.2,25.1z"/>
<path class="st0" d="M90,5c0-1.2,0-2.3,0-3.5c1.1,0,2.1,0,3.2,0c0,0.4,0,0.8,0,1.2c0,0.6,0,1.3,0,1.9c0,0.2,0,0.4-0.3,0.4
	C92,5,91,5,90,5z"/>
<path class="st0" d="M65.4,3.2c0,0.5,0,0.9,0,1.4c0,0.2-0.1,0.3-0.3,0.3c-0.9,0-1.7,0-2.6,0c-0.3,0-0.4-0.1-0.4-0.4
	c0-0.9,0-1.7,0-2.6c0-0.3,0.1-0.5,0.5-0.5c0.8,0,1.6,0,2.4,0c0.3,0,0.4,0.1,0.4,0.5C65.4,2.3,65.4,2.8,65.4,3.2z"/>
</svg>
